<svg width="573" height="144" viewBox="0 0 573 144" fill="none" xmlns="http://www.w3.org/2000/svg">
<g clip-path="url(#clip0_27_283)">
<path d="M573 26.786L569.944 41.2867C569.62 42.8501 568.766 44.2532 567.528 45.2588C566.289 46.2644 564.742 46.8106 563.148 46.805C551.085 46.805 542.601 52.847 539.786 66.5421L534.639 90.7099C534.062 93.4036 532.583 95.8186 530.447 97.5548C528.312 99.291 525.648 100.244 522.898 100.256H510.835L526.316 27.511H547.708L545.174 39.3533C547.617 35.3257 551.071 32.0091 555.19 29.7336C559.31 27.4581 563.953 26.303 568.657 26.3832C570.111 26.4434 571.56 26.5778 573 26.786Z" fill="#3B3B3B"/>
<path d="M547.627 119.349L557.318 142.55H546.702C545.648 142.554 544.618 142.236 543.749 141.639C542.88 141.042 542.213 140.193 541.837 139.207L537.213 127.123L531.503 131.956L530.256 137.918C529.972 139.211 529.254 140.367 528.223 141.195C527.191 142.023 525.908 142.473 524.587 142.469H516.544L524.064 107.184C524.341 105.841 525.073 104.635 526.135 103.769C527.197 102.903 528.525 102.431 529.894 102.431H537.735L534.639 117.536L547.828 104.848C549.375 103.36 551.434 102.523 553.578 102.512H565.038L547.627 119.349Z" fill="#3B3B3B"/>
<path d="M78.3703 57.5194L69.3632 99.5312H56.8979C55.7544 99.5252 54.6264 99.2649 53.5956 98.769C52.5648 98.273 51.6568 97.554 50.9373 96.6636C50.2178 95.7733 49.7048 94.7339 49.4352 93.6207C49.1656 92.5075 49.1462 91.3482 49.3785 90.2265L56.2948 57.7611C58.2651 48.4565 54.6059 43.8244 47.4082 43.8244C43.2458 43.8131 39.2279 45.3532 36.1362 48.145C33.0445 50.9368 31.0999 54.7808 30.6806 58.9292L21.955 99.5312H-0.160828L13.7118 34.3586C14.1557 32.2086 15.3259 30.2775 17.0251 28.8908C18.7244 27.5041 20.8489 26.7465 23.0406 26.7457H36.7122L34.5811 36.6142C37.638 33.0175 41.4329 30.1232 45.7074 28.1283C49.9818 26.1333 54.6353 25.0848 59.3508 25.054C74.5906 25.2957 83.3162 35.1642 78.3703 57.5194Z" fill="#3B3B3B"/>
<path d="M149.422 66.099C149.02 67.7908 148.739 69.0797 148.296 70.4895H94.5349C94.1328 81.0428 99.8829 85.8361 108.769 85.8361C111.876 86.0313 114.979 85.3866 117.752 83.9694C120.524 82.5521 122.866 80.4145 124.532 77.7801H145.361C139.169 93.5698 125.778 102.19 106.638 102.19C83.5574 102.19 70.0467 87.2459 75.5556 60.8627C77.24 50.841 82.5139 41.7783 90.3896 35.372C98.2653 28.9657 108.202 25.6553 118.34 26.061C141.702 25.9402 155.052 41.7298 149.422 66.099ZM97.3497 56.5125H129.88C130.255 54.6424 130.182 52.71 129.668 50.8734C129.154 49.0368 128.214 47.3482 126.923 45.9456C125.633 44.543 124.03 43.4663 122.244 42.8036C120.459 42.1409 118.542 41.9109 116.651 42.1326C112.316 42.1249 108.095 43.5208 104.617 46.1122C101.138 48.7035 98.5894 52.3516 97.3497 56.5125Z" fill="#3B3B3B"/>
<path d="M154.61 27.6319H176.765L161.284 100.377H139.289L154.61 27.6319Z" fill="#3B3B3B"/>
<path d="M247.255 27.6319L232.055 98.5242C227.672 119.107 217.418 129.701 192.045 129.701C167.718 129.701 158.55 118.422 159.676 103.036H182.073C182.073 109.964 185.853 113.186 193.895 113.186C203.345 113.186 208.25 107.99 210.663 96.2685L211.628 91.6364C206.578 96.3949 199.861 98.9705 192.93 98.8062C172.503 98.8062 161.365 83.1776 166.713 58.5264C171.096 38.3866 184.446 25.9804 203.184 25.9804C213.598 25.9804 220.233 30.3306 223.731 37.2587L225.863 27.6721L247.255 27.6319ZM200.892 81.2039C210.301 81.2039 216.976 75.0008 219.469 63.4406L219.871 61.5877C222.123 49.7454 217.338 43.5424 207.486 43.5424C197.635 43.5424 191.402 50.0274 188.748 61.4668C185.853 74.2758 190.96 81.2039 200.892 81.2039Z" fill="#3B3B3B"/>
<path d="M312.396 58.3653L303.268 100.377H281.313L290.199 58.6473C292.17 49.3426 288.671 44.6702 281.313 44.6702C277.304 44.664 273.426 46.1001 270.385 48.7172C267.345 51.3343 265.344 54.9583 264.746 58.9292L255.98 100.377H234.025L255.297 0H277.292L269.531 36.6546C272.582 33.2792 276.305 30.5819 280.461 28.7364C284.616 26.891 289.112 25.9384 293.657 25.9401C308.455 25.9401 317.181 35.9295 312.396 58.3653Z" fill="#3B3B3B"/>
<path d="M385.86 67.2269C381.477 87.125 368.248 102.069 348.545 102.069C338.532 102.069 332.059 98.2422 328.44 91.7572L326.63 100.377H305.439L326.831 0H348.786L341.629 32.9891C346.917 28.3458 353.737 25.834 360.769 25.9401C380.392 25.9401 391.369 41.8506 385.86 67.2269ZM352.485 43.5424C342.634 43.5424 336.16 50.0274 333.064 63.6822C329.968 77.3371 334.471 84.5471 345.127 84.5471C354.697 84.5471 361.493 77.3371 364.307 64.4073C367.162 50.1885 362.377 43.5424 352.646 43.5424H352.485Z" fill="#3B3B3B"/>
<path d="M384.292 60.0571C386.216 50.1105 391.635 41.1837 399.565 34.8952C407.495 28.6066 417.412 25.3724 427.518 25.779C452.288 25.779 464.834 41.1659 459.204 67.7908C457.239 77.6865 451.832 86.5626 443.946 92.8395C436.06 99.1164 426.206 102.387 416.139 102.069C391.49 102.069 378.663 86.682 384.292 60.0571ZM437.531 64.9712C440.466 50.8733 435.4 43.5424 425.709 43.5424C416.018 43.5424 408.941 50.4705 406.126 63.1586C403.151 77.3773 408.78 84.4263 417.948 84.4263C427.116 84.4263 434.837 77.6593 437.531 64.9712Z" fill="#3B3B3B"/>
<path d="M532.789 27.6319L517.308 100.377H495.916L498.048 90.5085C494.984 94.1083 491.183 97.0043 486.901 98.9993C482.62 100.994 477.96 102.041 473.238 102.069C458.199 102.069 449.473 92.0391 454.379 69.6436L463.386 27.6319H485.341L476.656 69.3617C474.524 78.6663 478.184 83.2984 485.341 83.2984C489.504 83.3207 493.527 81.7907 496.626 79.0062C499.725 76.2218 501.68 72.382 502.109 68.2339L510.835 27.6319H532.789Z" fill="#3B3B3B"/>
<path d="M282.117 131.634L280.669 138.361C280.381 139.518 279.713 140.544 278.772 141.274C277.831 142.005 276.673 142.397 275.482 142.389H249.908L257.388 107.144C257.681 105.79 258.426 104.577 259.501 103.706C260.576 102.834 261.916 102.356 263.299 102.351H271.099L264.867 131.473L282.117 131.634Z" fill="#3B3B3B"/>
<path d="M352.365 103.922H360.166L352.646 139.247C352.354 140.579 351.617 141.772 350.557 142.629C349.497 143.486 348.178 143.955 346.816 143.96H338.774L346.293 108.755C346.584 107.367 347.349 106.124 348.458 105.241C349.567 104.358 350.949 103.892 352.365 103.922Z" fill="#3B3B3B"/>
<path d="M463.507 103.922L455.987 139.287C455.71 140.609 454.987 141.795 453.94 142.646C452.893 143.497 451.586 143.961 450.237 143.96H442.195L436.807 129.741C435.802 127.163 435.038 124.907 434.274 122.491C433.389 127.445 432.504 132.117 431.379 137.434L429.971 143.96H417.908L425.347 108.997C425.65 107.565 426.434 106.28 427.568 105.357C428.702 104.433 430.118 103.927 431.58 103.922H439.139L444.326 118.181C445.171 120.396 445.975 123.296 446.739 126.237C447.664 121 448.669 116.126 449.875 110.487L451.283 103.962L463.507 103.922Z" fill="#3B3B3B"/>
<path d="M379.105 115.119H399.21C400.433 115.178 401.628 115.504 402.712 116.074C403.795 116.644 404.742 117.444 405.485 118.418C406.228 119.393 406.749 120.518 407.013 121.715C407.277 122.913 407.276 124.153 407.011 125.35V125.955C406.727 127.835 405.787 129.553 404.36 130.807C402.932 132.06 401.108 132.767 399.21 132.802H379.105C377.878 132.744 376.679 132.418 375.591 131.846C374.504 131.273 373.555 130.469 372.811 129.49C372.068 128.511 371.547 127.38 371.287 126.178C371.026 124.976 371.032 123.731 371.304 122.531V121.927C371.597 120.054 372.54 118.345 373.967 117.1C375.393 115.855 377.213 115.153 379.105 115.119Z" fill="#FFC917"/>
<path d="M299.448 115.119H319.553C320.778 115.171 321.977 115.493 323.064 116.06C324.152 116.628 325.101 117.428 325.846 118.405C326.59 119.381 327.111 120.509 327.372 121.709C327.632 122.91 327.626 124.153 327.354 125.35V125.955C327.069 127.835 326.13 129.553 324.703 130.807C323.275 132.06 321.451 132.767 319.553 132.802H299.448C298.221 132.744 297.022 132.418 295.934 131.846C294.847 131.273 293.898 130.469 293.154 129.49C292.411 128.511 291.89 127.38 291.63 126.178C291.369 124.976 291.375 123.731 291.647 122.531V121.927C291.94 120.054 292.883 118.345 294.31 117.1C295.736 115.855 297.556 115.153 299.448 115.119Z" fill="#174DFF"/>
<path d="M480.033 115.119H500.139C501.361 115.178 502.556 115.504 503.64 116.074C504.724 116.644 505.67 117.444 506.413 118.418C507.156 119.393 507.678 120.518 507.941 121.715C508.205 122.913 508.204 124.153 507.939 125.35V125.955C507.655 127.835 506.716 129.553 505.288 130.807C503.861 132.06 502.036 132.767 500.139 132.802H480.033C478.806 132.744 477.607 132.418 476.52 131.846C475.432 131.273 474.483 130.469 473.74 129.49C472.996 128.511 472.476 127.38 472.215 126.178C471.955 124.976 471.961 123.731 472.232 122.531V121.927C472.525 120.054 473.468 118.345 474.895 117.1C476.322 115.855 478.141 115.153 480.033 115.119Z" fill="#174DFF"/>
<g filter="url(#filter0_d_27_283)">
<path d="M139 33C142.487 13.8877 159.137 0 178.565 0H198C194.513 19.1123 177.863 33 158.435 33H139Z" fill="#65FF4C"/>
</g>
</g>
<defs>
<filter id="filter0_d_27_283" x="130" y="-9" width="77" height="51" filterUnits="userSpaceOnUse" color-interpolation-filters="sRGB">
<feFlood flood-opacity="0" result="BackgroundImageFix"/>
<feColorMatrix in="SourceAlpha" type="matrix" values="0 0 0 0 0 0 0 0 0 0 0 0 0 0 0 0 0 0 127 0" result="hardAlpha"/>
<feOffset/>
<feGaussianBlur stdDeviation="4.5"/>
<feComposite in2="hardAlpha" operator="out"/>
<feColorMatrix type="matrix" values="0 0 0 0 0 0 0 0 0 0 0 0 0 0 0 0 0 0 0.05 0"/>
<feBlend mode="normal" in2="BackgroundImageFix" result="effect1_dropShadow_27_283"/>
<feBlend mode="normal" in="SourceGraphic" in2="effect1_dropShadow_27_283" result="shape"/>
</filter>
<clipPath id="clip0_27_283">
<rect width="573" height="144" fill="white"/>
</clipPath>
</defs>
</svg>
